<svg width="591" height="441" viewBox="0 0 591 441" fill="none" xmlns="http://www.w3.org/2000/svg">
<path d="M590.075 386.705H0V387H590.075V386.705Z" fill="#EBEBEB"/>
<path d="M179.973 393.834H167.605V394.129H179.973V393.834Z" fill="#EBEBEB"/>
<path d="M550.162 401.574H529.096V401.869H550.162V401.574Z" fill="#EBEBEB"/>
<path d="M450.686 393.975H380.88V394.27H450.686V393.975Z" fill="#EBEBEB"/>
<path d="M276.025 400.701H222.623V400.996H276.025V400.701Z" fill="#EBEBEB"/>
<path d="M164.843 398.838H146.338V399.133H164.843V398.838Z" fill="#EBEBEB"/>
<path d="M503.145 400.701H476.521V400.996H503.145V400.701Z" fill="#EBEBEB"/>
<path d="M139.459 398.695H76.6278V398.99H139.459V398.695Z" fill="#EBEBEB"/>
<path d="M279.695 334.071H51.8196C50.0345 334.067 48.3235 333.356 47.0623 332.093C45.8011 330.829 45.0928 329.117 45.0928 327.332V7.00387C45.1083 5.22895 45.8235 3.53184 47.083 2.28116C48.3425 1.03049 50.0446 0.327259 51.8196 0.324219H279.695C281.482 0.324219 283.196 1.03418 284.46 2.29793C285.723 3.56167 286.433 5.27567 286.433 7.06287V327.332C286.433 329.119 285.723 330.833 284.46 332.097C283.196 333.361 281.482 334.071 279.695 334.071ZM51.8196 0.56025C50.1127 0.563376 48.4768 1.24363 47.2709 2.45171C46.0651 3.65978 45.3878 5.29696 45.3878 7.00387V327.332C45.3878 329.039 46.0651 330.676 47.2709 331.884C48.4768 333.092 50.1127 333.772 51.8196 333.776H279.695C281.402 333.769 283.037 333.088 284.244 331.881C285.451 330.674 286.132 329.039 286.138 327.332V7.00387C286.132 5.29683 285.451 3.66148 284.244 2.45441C283.037 1.24734 281.402 0.566468 279.695 0.56025H51.8196Z" fill="#EBEBEB"/>
<path d="M534.973 334.071H307.086C305.301 334.064 303.59 333.352 302.328 332.09C301.065 330.828 300.353 329.117 300.347 327.332V7.00387C300.366 5.22787 301.084 3.53078 302.345 2.28043C303.606 1.03008 305.31 0.327226 307.086 0.324219H534.973C536.746 0.330361 538.445 1.03496 539.702 2.28531C540.959 3.53565 541.672 5.23099 541.688 7.00387V327.332C541.689 328.215 541.517 329.09 541.18 329.907C540.844 330.724 540.349 331.466 539.726 332.092C539.102 332.718 538.362 333.215 537.546 333.554C536.731 333.893 535.856 334.069 534.973 334.071ZM307.086 0.56025C305.379 0.566468 303.743 1.24734 302.536 2.45441C301.329 3.66148 300.648 5.29683 300.642 7.00387V327.332C300.648 329.039 301.329 330.674 302.536 331.881C303.743 333.088 305.379 333.769 307.086 333.776H534.973C536.68 333.769 538.315 333.088 539.522 331.881C540.729 330.674 541.41 329.039 541.416 327.332V7.00387C541.41 5.29683 540.729 3.66148 539.522 2.45441C538.315 1.24734 536.68 0.566468 534.973 0.56025H307.086Z" fill="#EBEBEB"/>
<path d="M240.503 35.293H91.5208V258.27H240.503V35.293Z" fill="#E6E6E6"/>
<path d="M237.198 35.293H88.2162V258.27H237.198V35.293Z" fill="#F5F5F5"/>
<path d="M231.251 41.9707H94.1528V251.601H231.251V41.9707Z" fill="white"/>
<path d="M96.6667 41.959H94.1648V251.589H96.6667V41.959Z" fill="#E6E6E6"/>
<path d="M234.732 186.551H90.6713V195.508H234.732V186.551Z" fill="#F5F5F5"/>
<path opacity="0.4" d="M234.745 25.166H82.0332V71.0266H234.745V25.166Z" fill="#F0F0F0"/>
<path d="M81.7377 24.2465H246.959C247.185 24.2576 247.399 24.3516 247.56 24.5105C247.721 24.6695 247.818 24.8821 247.832 25.108C247.832 25.3521 247.735 25.5863 247.562 25.7589C247.39 25.9315 247.156 26.0285 246.911 26.0285H81.6905C81.4484 26.0254 81.2173 25.927 81.0472 25.7547C80.8771 25.5824 80.7817 25.3501 80.7817 25.108C80.7998 24.8691 80.9092 24.6463 81.0872 24.4859C81.2652 24.3254 81.4981 24.2397 81.7377 24.2465Z" fill="#E6E6E6"/>
<path d="M76.2498 25.1082C76.2474 26.0138 76.5137 26.8998 77.0149 27.6541C77.5161 28.4084 78.2297 28.9972 79.0655 29.3459C79.9014 29.6946 80.8218 29.7877 81.7105 29.6133C82.5992 29.4389 83.4162 29.0049 84.0582 28.3662C84.7002 27.7274 85.1384 26.9127 85.3174 26.0249C85.4964 25.1371 85.4081 24.2162 85.0637 23.3786C84.7193 22.541 84.1342 21.8244 83.3825 21.3193C82.6308 20.8142 81.7462 20.5434 80.8406 20.541C80.2392 20.5395 79.6435 20.6564 79.0874 20.8851C78.5312 21.1137 78.0256 21.4497 77.5993 21.8738C77.173 22.2979 76.8344 22.8019 76.6028 23.3568C76.3713 23.9118 76.2513 24.5069 76.2498 25.1082Z" fill="#E6E6E6"/>
<path d="M239.275 30.2772C239.593 30.2776 239.9 30.1552 240.131 29.9354C240.362 29.7156 240.499 29.4154 240.514 29.0971V26.3945C240.499 26.0762 240.362 25.776 240.131 25.5562C239.9 25.3364 239.593 25.214 239.275 25.2144C239.115 25.2064 238.955 25.231 238.805 25.2867C238.655 25.3424 238.518 25.4281 238.402 25.5385C238.286 25.6488 238.194 25.7817 238.131 25.9288C238.068 26.076 238.035 26.2344 238.036 26.3945V29.1089C238.036 29.4219 238.16 29.722 238.381 29.9434C238.603 30.1647 238.903 30.289 239.216 30.289L239.275 30.2772Z" fill="#E6E6E6"/>
<path d="M95.5914 30.2757C95.9044 30.2757 96.2046 30.1514 96.4259 29.9301C96.6472 29.7088 96.7716 29.4086 96.7716 29.0956V26.393C96.7716 26.08 96.6472 25.7799 96.4259 25.5586C96.2046 25.3372 95.9044 25.2129 95.5914 25.2129C95.2784 25.2129 94.9782 25.3372 94.7569 25.5586C94.5356 25.7799 94.4113 26.08 94.4113 26.393V29.0484C94.4113 29.3614 94.5356 29.6615 94.7569 29.8829C94.9782 30.1042 95.2784 30.2285 95.5914 30.2285V30.2757Z" fill="#E6E6E6"/>
<path d="M219.991 25.1082C219.989 26.0138 220.255 26.8998 220.756 27.6541C221.258 28.4084 221.971 28.9972 222.807 29.3459C223.643 29.6946 224.563 29.7877 225.452 29.6133C226.341 29.4389 227.158 29.0049 227.8 28.3662C228.442 27.7274 228.88 26.9127 229.059 26.0249C229.238 25.1371 229.15 24.2162 228.805 23.3786C228.461 22.541 227.876 21.8244 227.124 21.3193C226.372 20.8142 225.488 20.5434 224.582 20.541C223.981 20.5395 223.385 20.6564 222.829 20.8851C222.273 21.1137 221.767 21.4497 221.341 21.8738C220.915 22.2979 220.576 22.8019 220.344 23.3568C220.113 23.9118 219.993 24.5069 219.991 25.1082Z" fill="#E6E6E6"/>
<path d="M506.555 285.094H463.456V380.639H506.555V285.094Z" fill="#E6E6E6"/>
<path d="M498.282 380.65H285.76V386.705H498.282V380.65Z" fill="#E6E6E6"/>
<path d="M463.456 285.105H277.477V380.65H463.456V285.105Z" fill="#F5F5F5"/>
<path d="M446.523 296.861H294.425V328.194H446.523V296.861Z" fill="#E6E6E6"/>
<path d="M446.523 337.553H294.425V368.886H446.523V337.553Z" fill="#E6E6E6"/>
<path d="M389.838 310.385H351.082C350.033 310.385 349.182 311.235 349.182 312.285V312.78C349.182 313.83 350.033 314.68 351.082 314.68H389.838C390.888 314.68 391.738 313.83 391.738 312.78V312.285C391.738 311.235 390.888 310.385 389.838 310.385Z" fill="#F5F5F5"/>
<path d="M389.838 351.064H351.082C350.033 351.064 349.182 351.915 349.182 352.964V353.46C349.182 354.51 350.033 355.36 351.082 355.36H389.838C390.888 355.36 391.738 354.51 391.738 353.46V352.964C391.738 351.915 390.888 351.064 389.838 351.064Z" fill="#F5F5F5"/>
<path d="M412.073 271.393C417.339 271.393 421.609 267.124 421.609 261.858C421.609 256.591 417.339 252.322 412.073 252.322C406.807 252.322 402.537 256.591 402.537 261.858C402.537 267.124 406.807 271.393 412.073 271.393Z" fill="#F5F5F5"/>
<path d="M394.867 269.233C400.113 269.233 404.367 264.979 404.367 259.733C404.367 254.486 400.113 250.232 394.867 250.232C389.62 250.232 385.366 254.486 385.366 259.733C385.366 264.979 389.62 269.233 394.867 269.233Z" fill="#F5F5F5"/>
<path d="M348.934 273.623C354.181 273.623 358.434 269.37 358.434 264.123C358.434 258.876 354.181 254.623 348.934 254.623C343.687 254.623 339.434 258.876 339.434 264.123C339.434 269.37 343.687 273.623 348.934 273.623Z" fill="#F5F5F5"/>
<path d="M373.422 278.014C378.669 278.014 382.922 273.761 382.922 268.514C382.922 263.267 378.669 259.014 373.422 259.014C368.175 259.014 363.922 263.267 363.922 268.514C363.922 273.761 368.175 278.014 373.422 278.014Z" fill="#F5F5F5"/>
<path d="M437.399 263.25C437.399 263.25 435.865 285.106 376.905 285.106C317.944 285.106 316.41 263.25 316.41 263.25H437.399Z" fill="#E6E6E6"/>
<path d="M236.622 287.49H215.108V380.793H236.622V287.49Z" fill="#E6E6E6"/>
<path d="M232.478 380.793H92.9373V386.705H232.478V380.793Z" fill="#E6E6E6"/>
<path d="M215.095 287.49H88.8073V380.793H215.095V287.49Z" fill="#F5F5F5"/>
<path d="M206.645 298.973H97.2683V329.574H206.645V298.973Z" fill="#E6E6E6"/>
<path d="M206.645 338.709H97.2683V369.31H206.645V338.709Z" fill="#E6E6E6"/>
<path d="M135.387 302.713H168.514C169.593 302.707 170.626 302.277 171.39 301.515C172.154 300.753 172.588 299.721 172.597 298.642C172.594 297.56 172.163 296.523 171.398 295.758C170.633 294.993 169.596 294.562 168.514 294.559H135.387C134.308 294.568 133.276 295.001 132.514 295.766C131.752 296.53 131.322 297.563 131.316 298.642C131.322 299.72 131.753 300.752 132.515 301.514C133.277 302.276 134.309 302.707 135.387 302.713Z" fill="#F5F5F5"/>
<path d="M135.387 342.45H168.514C169.596 342.447 170.633 342.015 171.398 341.25C172.163 340.485 172.594 339.448 172.597 338.366C172.588 337.287 172.154 336.255 171.39 335.494C170.626 334.732 169.593 334.301 168.514 334.295H135.387C134.309 334.301 133.277 334.732 132.515 335.494C131.753 336.257 131.322 337.289 131.316 338.366C131.322 339.445 131.752 340.479 132.514 341.243C133.276 342.007 134.308 342.44 135.387 342.45Z" fill="#F5F5F5"/>
<path d="M391.799 55.8379H330.03V181.571H391.799V55.8379Z" fill="#EBEBEB"/>
<path d="M390.464 55.8379H325.072V181.571H390.464V55.8379Z" fill="#F5F5F5"/>
<path d="M380.94 65.3496H334.572V172.059H380.94V65.3496Z" fill="white"/>
<path d="M507.559 122.74H473.736V161.709H507.559V122.74Z" fill="#EBEBEB"/>
<path d="M503.545 122.74H466.89V161.709H503.545V122.74Z" fill="#F5F5F5"/>
<path d="M500.479 125.82H469.972V158.64H500.479V125.82Z" fill="white"/>
<path d="M490.388 133.775H480.049C478.563 133.775 477.359 134.98 477.359 136.466V147.996C477.359 149.482 478.563 150.687 480.049 150.687H490.388C491.874 150.687 493.078 149.482 493.078 147.996V136.466C493.078 134.98 491.874 133.775 490.388 133.775Z" fill="#F0F0F0"/>
<path d="M480.297 68.5254H446.474V107.494H480.297V68.5254Z" fill="#EBEBEB"/>
<path d="M476.296 68.5254H439.641V107.494H476.296V68.5254Z" fill="#F5F5F5"/>
<path d="M473.227 71.5938H442.72V104.414H473.227V71.5938Z" fill="white"/>
<path d="M463.138 79.5469H452.8C451.314 79.5469 450.109 80.7516 450.109 82.2376V93.7677C450.109 95.2537 451.314 96.4584 452.8 96.4584H463.138C464.624 96.4584 465.829 95.2537 465.829 93.7677V82.2376C465.829 80.7516 464.624 79.5469 463.138 79.5469Z" fill="#F0F0F0"/>
<path d="M295.039 440C421.412 440 523.858 434.019 523.858 426.641C523.858 419.262 421.412 413.281 295.039 413.281C168.665 413.281 66.2196 419.262 66.2196 426.641C66.2196 434.019 168.665 440 295.039 440Z" fill="#F5F5F5"/>
<path d="M384.237 84.5527H129.431V334.048H384.237V84.5527Z" fill="#637BB3"/>
<path opacity="0.7" d="M384.237 84.5527H129.431V334.048H384.237V84.5527Z" fill="black"/>
<path d="M377.698 92.5312H135.992V334.049H377.698V92.5312Z" fill="white"/>
<path d="M384.236 330.532V334.048H255.824L283.581 306.315L321.795 268.078L384.236 330.532Z" fill="#637BB3"/>
<path opacity="0.7" d="M384.236 330.532V334.048H255.824L283.581 306.315L321.795 268.078L384.236 330.532Z" fill="black"/>
<path d="M129.431 334.048V310.067L208.383 231.115L311.315 334.048H129.431Z" fill="#637BB3"/>
<path opacity="0.7" d="M129.431 334.048V310.067L208.383 231.115L311.315 334.048H129.431Z" fill="black"/>
<path d="M337.371 170.889C340.824 149.62 326.381 129.579 305.111 126.126C283.842 122.674 263.801 137.117 260.348 158.387C256.896 179.656 271.339 199.697 292.608 203.15C313.878 206.602 333.919 192.159 337.371 170.889Z" fill="#637BB3"/>
<path opacity="0.7" d="M337.371 170.889C340.824 149.62 326.381 129.579 305.111 126.126C283.842 122.674 263.801 137.117 260.348 158.387C256.896 179.656 271.339 199.697 292.608 203.15C313.878 206.602 333.919 192.159 337.371 170.889Z" fill="black"/>
<path d="M204.992 79.6438L180.732 327.957L434.331 352.733L458.591 104.42L204.992 79.6438Z" fill="#637BB3"/>
<path opacity="0.1" d="M204.992 79.5637L180.732 327.877L434.331 352.653L458.591 104.34L204.992 79.5637Z" fill="black"/>
<path d="M210.749 88.2225L187.265 328.596L427.826 352.098L451.31 111.725L210.749 88.2225Z" fill="white"/>
<path d="M430.301 97.5032L430.187 98.6777L438.62 99.5017L438.735 98.3271L430.301 97.5032Z" fill="#637BB3"/>
<path d="M403.44 93.1519L403.322 94.3262L424.06 96.3998L424.178 95.2255L403.44 93.1519Z" fill="#637BB3"/>
<path opacity="0.1" d="M430.301 97.5032L430.187 98.6777L438.62 99.5017L438.735 98.3271L430.301 97.5032Z" fill="black"/>
<path opacity="0.1" d="M403.44 93.1519L403.322 94.3262L424.06 96.3998L424.178 95.2255L403.44 93.1519Z" fill="black"/>
<path opacity="0.1" d="M434.661 349.213L434.319 352.718L306.521 340.232L336.839 315.331L378.592 280.988L434.661 349.213Z" fill="black"/>
<path d="M434.661 349.213L434.319 352.718L306.521 340.232L336.839 315.331L378.592 280.988L434.661 349.213Z" fill="#637BB3"/>
<path opacity="0.1" d="M434.661 349.213L434.319 352.718L306.521 340.232L336.839 315.331L378.592 280.988L434.661 349.213Z" fill="black"/>
<path opacity="0.1" d="M365.823 214.828C387.371 214.828 404.839 197.36 404.839 175.813C404.839 154.265 387.371 136.797 365.823 136.797C344.275 136.797 326.807 154.265 326.807 175.813C326.807 197.36 344.275 214.828 365.823 214.828Z" fill="black"/>
<path d="M365.823 214.828C387.371 214.828 404.839 197.36 404.839 175.813C404.839 154.265 387.371 136.797 365.823 136.797C344.275 136.797 326.807 154.265 326.807 175.813C326.807 197.36 344.275 214.828 365.823 214.828Z" fill="#637BB3"/>
<path opacity="0.1" d="M365.823 214.828C387.371 214.828 404.839 197.36 404.839 175.813C404.839 154.265 387.371 136.797 365.823 136.797C344.275 136.797 326.807 154.265 326.807 175.813C326.807 197.36 344.275 214.828 365.823 214.828Z" fill="black"/>
<path d="M345.502 112.598L91.2384 129.219L107.513 378.183L361.776 361.562L345.502 112.598Z" fill="#637BB3"/>
<path d="M339.484 120.982L98.2925 136.748L114.046 377.751L355.238 361.985L339.484 120.982Z" fill="white"/>
<path opacity="0.5" d="M345.502 112.598L91.2384 129.219L107.513 378.183L361.776 361.562L345.502 112.598Z" fill="white"/>
<path d="M361.518 358.074L361.743 361.579L233.614 369.947L259.494 340.467L295.135 299.822L361.518 358.074Z" fill="#637BB3"/>
<path opacity="0.5" d="M361.518 358.074L361.743 361.579L233.614 369.947L259.494 340.467L295.135 299.822L361.518 358.074Z" fill="white"/>
<path d="M107.479 378.184L105.921 354.262L179.562 270.33L288.974 366.335L107.479 378.184Z" fill="#637BB3"/>
<path opacity="0.5" d="M107.479 378.184L105.921 354.262L179.562 270.33L288.974 366.335L107.479 378.184Z" fill="white"/>
<path d="M265.513 237.11C287.061 237.11 304.529 219.642 304.529 198.094C304.529 176.546 287.061 159.078 265.513 159.078C243.966 159.078 226.498 176.546 226.498 198.094C226.498 219.642 243.966 237.11 265.513 237.11Z" fill="#637BB3"/>
<path opacity="0.5" d="M265.513 237.11C287.061 237.11 304.529 219.642 304.529 198.094C304.529 176.546 287.061 159.078 265.513 159.078C243.966 159.078 226.498 176.546 226.498 198.094C226.498 219.642 243.966 237.11 265.513 237.11Z" fill="white"/>
<path d="M461 172.531C461.838 174.077 462.534 175.446 463.219 176.933C463.903 178.42 464.576 179.848 465.225 181.323C466.488 184.274 467.668 187.224 468.765 190.352C469.842 193.449 470.756 196.6 471.503 199.793L472.058 202.224L472.506 204.69C472.672 205.516 472.766 206.366 472.884 207.204L473.049 208.479V209.317C473.073 209.71 473.073 210.104 473.049 210.497C472.956 212.75 472.436 214.964 471.515 217.023C470.803 218.672 469.983 220.273 469.06 221.814C467.342 224.633 465.438 227.333 463.36 229.898C459.366 234.862 454.99 239.506 450.272 243.789L445.457 239.469C448.892 234.513 452.302 229.391 455.371 224.316C456.873 221.847 458.247 219.302 459.489 216.692C460.048 215.519 460.525 214.309 460.917 213.069C461.211 212.272 461.355 211.428 461.342 210.579V210.32L461.118 209.305C460.976 208.62 460.846 207.948 460.646 207.263L460.103 205.21L459.501 203.144C458.64 200.395 457.684 197.645 456.61 194.883C455.536 192.122 454.403 189.419 453.211 186.717C452.019 184.014 450.709 181.253 449.505 178.762L461 172.531Z" fill="#EEC1BB"/>
<path d="M474.535 193.171L458.473 201.657L454.602 203.71C454.602 203.71 453.694 201.055 452.407 197.196C451.369 194.115 450.047 190.28 448.796 186.397C448.395 185.217 447.994 183.954 447.616 182.751C447.498 182.408 447.38 182.078 447.274 181.736C443.804 171.114 453.434 166.335 459.984 167.704C471.195 170.052 474.535 193.171 474.535 193.171Z" fill="#637BB3"/>
<path opacity="0.7" d="M474.535 193.171L458.473 201.657L454.602 203.71C454.602 203.71 453.694 201.055 452.407 197.196C451.369 194.115 450.047 190.28 448.796 186.397C448.395 185.217 447.994 183.954 447.616 182.751C447.498 182.408 447.38 182.078 447.274 181.736C443.804 171.114 453.434 166.335 459.984 167.704C471.195 170.052 474.535 193.171 474.535 193.171Z" fill="white"/>
<path d="M458.475 201.656L454.605 203.71C454.605 203.71 453.696 201.055 452.409 197.195C451.371 194.115 450.049 190.28 448.798 186.397C448.397 185.217 447.996 183.954 447.618 182.75L456.469 181.016C456.469 181.016 457.673 195.048 458.475 201.656Z" fill="#637BB3"/>
<path opacity="0.6" d="M458.475 201.656L454.605 203.71C454.605 203.71 453.696 201.055 452.409 197.195C451.371 194.115 450.049 190.28 448.798 186.397C448.397 185.217 447.996 183.954 447.618 182.75L456.469 181.016C456.469 181.016 457.673 195.048 458.475 201.656Z" fill="white"/>
<path d="M447.418 238.123L439.157 240.873L446.651 248.91C446.651 248.91 453.177 245.003 451.501 241.309L447.418 238.123Z" fill="#EEC1BB"/>
<path d="M433.457 248.273L439.948 254.516L446.628 248.91L439.134 240.873L433.457 248.273Z" fill="#EEC1BB"/>
<path d="M388.209 408.336L379.641 407.699L378.839 387.672L387.407 388.309L388.209 408.336Z" fill="#EEC1BB"/>
<path d="M443.028 415.983H434.425L427.722 396.062H436.325L443.028 415.983Z" fill="#EEC1BB"/>
<path d="M378.839 387.684L379.252 398.01L387.831 398.647L387.418 388.321L378.839 387.684Z" fill="#DB9792"/>
<path d="M436.325 396.074H427.722L431.18 406.342H439.783L436.325 396.074Z" fill="#DB9792"/>
<path d="M442.885 404.348H427.13C427.13 404.348 411.788 351.572 407.929 324.251C407.103 318.351 407.587 310.562 408.826 302.112C410.939 287.655 415.211 271.239 418.763 258.989C421.926 248.096 424.534 240.484 424.534 240.484L454.144 242.691C452.539 264.182 431.273 299.468 432.748 328.63C434.105 355.549 442.885 404.348 442.885 404.348Z" fill="#637BB3"/>
<path opacity="0.7" d="M442.885 404.348H427.13C427.13 404.348 411.788 351.572 407.929 324.251C407.103 318.351 407.587 310.562 408.826 302.112C410.939 287.655 415.211 271.239 418.763 258.989C421.926 248.096 424.534 240.484 424.534 240.484L454.144 242.691C452.539 264.182 431.273 299.468 432.748 328.63C434.105 355.549 442.885 404.348 442.885 404.348Z" fill="black"/>
<path d="M447.192 143.381C445.351 149.518 442.979 160.871 446.945 165.473C446.945 165.473 444.584 171.657 432.972 170.501C420.179 169.226 427.496 163.55 427.496 163.55C434.636 162.57 434.978 157.377 434.234 152.385L447.192 143.381Z" fill="#EEC1BB"/>
<path d="M425.383 134.093C425.312 134.778 424.887 135.273 424.439 135.273C423.99 135.273 423.683 134.636 423.742 133.94C423.801 133.244 424.238 132.76 424.687 132.76C425.135 132.76 425.454 133.397 425.383 134.093Z" fill="#263238"/>
<path d="M425.359 134.436C424.332 136.465 423.025 138.34 421.476 140.006C421.913 140.392 422.429 140.677 422.987 140.842C423.546 141.007 424.134 141.048 424.71 140.962L425.359 134.436Z" fill="#D4827D"/>
<path d="M428.028 131.815C427.956 131.816 427.885 131.798 427.823 131.763C427.761 131.728 427.709 131.677 427.674 131.615C427.42 131.173 427.065 130.797 426.639 130.518C426.212 130.239 425.725 130.065 425.219 130.01C425.11 130.004 425.008 129.956 424.934 129.877C424.859 129.798 424.817 129.693 424.818 129.585C424.814 129.535 424.821 129.485 424.838 129.437C424.855 129.39 424.882 129.347 424.916 129.311C424.95 129.274 424.992 129.245 425.038 129.225C425.084 129.205 425.133 129.195 425.183 129.195H425.242C425.886 129.252 426.506 129.462 427.05 129.809C427.595 130.157 428.047 130.63 428.37 131.19C428.427 131.282 428.446 131.394 428.421 131.5C428.397 131.606 428.332 131.698 428.24 131.756C428.175 131.792 428.102 131.812 428.028 131.815Z" fill="#263238"/>
<path d="M433.279 414.981H443.735C443.906 414.98 444.073 415.038 444.206 415.146C444.339 415.253 444.431 415.403 444.467 415.571L446.166 423.218C446.201 423.381 446.203 423.549 446.172 423.713C446.142 423.876 446.079 424.032 445.988 424.171C445.897 424.311 445.779 424.43 445.642 424.524C445.504 424.618 445.35 424.683 445.187 424.717H444.903C441.54 424.658 439.073 424.469 434.825 424.469C432.217 424.469 426.823 424.741 423.212 424.741C419.601 424.741 419.141 421.2 420.616 420.846C427.237 419.395 429.738 417.4 431.851 415.488C432.25 415.152 432.757 414.972 433.279 414.981Z" fill="#263238"/>
<path d="M379.227 405.776L388.598 406.472C388.768 406.489 388.927 406.562 389.051 406.679C389.175 406.797 389.257 406.952 389.282 407.121L390.403 414.863C390.43 415.025 390.424 415.191 390.387 415.351C390.349 415.511 390.279 415.662 390.183 415.794C390.086 415.927 389.964 416.04 389.824 416.125C389.683 416.21 389.527 416.267 389.365 416.291C389.263 416.303 389.16 416.303 389.058 416.291C385.683 415.972 380.797 415.418 376.572 415.111C371.603 414.745 368.311 414.568 362.481 414.131C358.94 413.872 358.256 410.237 359.743 410.024C366.564 409.057 371.049 409.434 377.115 406.295C377.757 405.93 378.488 405.75 379.227 405.776Z" fill="#263238"/>
<path d="M408.778 171.139C407.999 172.472 407.067 173.995 406.205 175.434C405.343 176.874 404.399 178.338 403.467 179.766C401.614 182.633 399.691 185.442 397.696 188.156C395.702 190.871 393.625 193.491 391.441 195.934C389.563 198.059 387.519 200.033 385.328 201.834C383.509 202.255 381.657 202.523 379.793 202.637C377.425 202.755 375.05 202.613 372.712 202.212C369.061 201.573 365.523 200.404 362.209 198.742C361.654 198.459 361.111 198.152 360.58 197.845L359.093 196.96L354.597 201.587C355.234 202.318 355.718 202.767 356.296 203.38C356.847 203.922 357.426 204.434 358.031 204.915C359.212 205.908 360.453 206.826 361.749 207.664C364.389 209.352 367.227 210.708 370.199 211.7C373.233 212.705 376.381 213.327 379.569 213.553C382.782 213.753 386.007 213.566 389.175 212.999L390.155 212.822L391.276 212.09C394.578 209.886 397.639 207.343 400.41 204.501C403.082 201.82 405.589 198.978 407.916 195.993C410.277 193.066 412.377 190.033 414.419 186.953C415.434 185.383 416.413 183.802 417.369 182.232C418.325 180.662 419.234 179.093 420.178 177.323L408.778 171.139Z" fill="#EEC1BB"/>
<path d="M363 199.77L356.58 194.152L351.682 202.626C351.682 202.626 356.25 207.748 361.619 204.526L363 199.77Z" fill="#EEC1BB"/>
<path d="M347.647 190.469L344.236 198.222L351.636 202.624L356.58 194.198L347.647 190.469Z" fill="#EEC1BB"/>
<path d="M448.88 134.034C447.511 142.46 447.145 147.453 442.436 151.382C435.355 157.283 425.265 152.362 424.085 143.7C423.023 135.911 425.43 123.436 434.057 120.887C435.958 120.317 437.974 120.242 439.912 120.67C441.85 121.097 443.647 122.013 445.132 123.33C446.617 124.647 447.741 126.322 448.397 128.195C449.053 130.069 449.219 132.079 448.88 134.034Z" fill="#EEC1BB"/>
<path d="M458.416 129.597C464.718 134.011 449.718 150.203 444.384 150.026C439.05 149.849 429.042 135.061 432.323 127.19C429.573 126.08 428.688 125.715 427.602 122.906C425.573 117.819 428.015 109.334 440.478 111.718C437.386 113.819 439.534 115.483 445.399 114.668C443.039 117.418 446.91 119.448 452.61 118.268C451.607 123.319 464.317 124.039 458.416 129.597Z" fill="#263238"/>
<path d="M437.021 136.643C436.621 138.75 435.409 140.615 433.646 141.835C431.285 143.429 429.208 141.54 429.114 138.838C429.031 136.418 430.152 132.666 432.878 132.158C433.831 131.998 434.809 132.222 435.597 132.782C436.385 133.341 436.918 134.191 437.08 135.144C437.161 135.642 437.141 136.152 437.021 136.643Z" fill="#EEC1BB"/>
<path opacity="0.4" d="M426.599 265.196C426.433 279.499 416.379 295.302 408.826 302.111C410.938 287.654 415.21 271.238 418.762 258.988C420.969 258.54 424.758 262.729 426.599 265.196Z" fill="black"/>
<path d="M430.434 416.492C429.848 416.536 429.265 416.378 428.782 416.043C428.625 415.916 428.503 415.75 428.429 415.562C428.355 415.374 428.33 415.17 428.357 414.969C428.357 414.851 428.389 414.735 428.449 414.633C428.509 414.532 428.596 414.448 428.699 414.391C429.667 413.919 432.428 415.571 432.747 415.807C432.778 415.83 432.801 415.861 432.816 415.896C432.83 415.931 432.835 415.97 432.83 416.008C432.825 416.048 432.808 416.086 432.78 416.116C432.753 416.146 432.716 416.166 432.676 416.173C431.945 416.373 431.192 416.48 430.434 416.492ZM429.159 414.71C429.07 414.686 428.977 414.686 428.888 414.71C428.848 414.734 428.814 414.769 428.792 414.81C428.769 414.852 428.757 414.898 428.758 414.946C428.741 415.083 428.758 415.223 428.807 415.353C428.857 415.482 428.937 415.598 429.041 415.689C429.999 416.128 431.089 416.183 432.086 415.843C431.193 415.269 430.2 414.868 429.159 414.662V414.71Z" fill="#637BB3"/>
<path d="M432.629 416.184H432.534C431.649 415.7 429.926 413.824 430.103 412.856C430.133 412.706 430.214 412.571 430.333 412.475C430.451 412.378 430.599 412.325 430.752 412.325C430.908 412.301 431.067 412.312 431.218 412.357C431.369 412.401 431.508 412.479 431.626 412.585C432.617 413.399 432.806 415.877 432.806 415.984C432.805 416.02 432.796 416.056 432.78 416.089C432.763 416.121 432.74 416.15 432.711 416.172L432.629 416.184ZM430.894 412.644H430.811C430.54 412.644 430.516 412.797 430.504 412.844C430.398 413.411 431.496 414.839 432.381 415.512C432.316 414.534 431.963 413.598 431.366 412.821C431.231 412.72 431.062 412.673 430.894 412.691V412.644Z" fill="#637BB3"/>
<path d="M376.289 407.038C375.306 407.145 374.317 406.894 373.504 406.33C373.377 406.196 373.283 406.035 373.23 405.859C373.177 405.682 373.166 405.496 373.197 405.315C373.209 405.203 373.249 405.095 373.316 405.004C373.382 404.913 373.472 404.841 373.575 404.796C374.661 404.3 377.977 406.294 378.354 406.53C378.389 406.553 378.416 406.585 378.433 406.623C378.45 406.66 378.455 406.702 378.449 406.743C378.438 406.784 378.416 406.822 378.385 406.851C378.353 406.881 378.314 406.9 378.272 406.908C377.614 406.992 376.952 407.036 376.289 407.038ZM374.023 405.114C373.93 405.115 373.837 405.136 373.752 405.173C373.711 405.19 373.675 405.217 373.648 405.253C373.621 405.288 373.604 405.33 373.598 405.374C373.574 405.494 373.579 405.618 373.614 405.735C373.649 405.853 373.713 405.96 373.799 406.047C374.295 406.554 375.699 406.743 377.611 406.566C376.518 405.858 375.301 405.365 374.023 405.114Z" fill="#637BB3"/>
<path d="M378.249 406.909H378.143C377.151 406.366 375.24 404.36 375.464 403.369C375.523 403.145 375.7 402.873 376.266 402.85C376.675 402.847 377.069 403.003 377.364 403.286C378.068 404.28 378.447 405.467 378.45 406.685C378.45 406.72 378.441 406.755 378.425 406.786C378.408 406.816 378.384 406.843 378.355 406.862L378.249 406.909ZM376.314 403.275C375.936 403.275 375.912 403.428 375.9 403.475C375.759 404.042 377.081 405.611 378.048 406.319C378.029 405.336 377.703 404.383 377.116 403.593C377.011 403.488 376.886 403.405 376.748 403.351C376.61 403.296 376.462 403.27 376.314 403.275Z" fill="#637BB3"/>
<path d="M408.331 239.281C408.331 239.281 371.18 295.48 370.165 321.703C369.115 348.976 376.243 395.781 376.243 395.781L390.77 396.867C390.77 396.867 392.458 352.351 395.09 325.68C397.958 296.613 439.936 264.218 441.588 241.76L408.331 239.281Z" fill="#637BB3"/>
<path opacity="0.7" d="M408.331 239.281C408.331 239.281 371.18 295.48 370.165 321.703C369.115 348.976 376.243 395.781 376.243 395.781L390.77 396.867C390.77 396.867 392.458 352.351 395.09 325.68C397.958 296.613 439.936 264.218 441.588 241.76L408.331 239.281Z" fill="black"/>
<path d="M424.343 404.69H444.937V399.143L421.924 398.789L424.343 404.69Z" fill="#637BB3"/>
<path d="M373.267 395.863L393.436 397.409L393.861 391.815L371.285 389.797L373.267 395.863Z" fill="#637BB3"/>
<path d="M424.343 175.092C423.73 183.282 414.029 199.249 414.029 199.249L392.066 187.707C392.066 187.707 399.501 175.752 407.632 168.636C415.764 161.52 425.016 166.087 424.343 175.092Z" fill="#637BB3"/>
<path opacity="0.7" d="M424.343 175.092C423.73 183.282 414.029 199.249 414.029 199.249L392.066 187.707C392.066 187.707 399.501 175.752 407.632 168.636C415.764 161.52 425.016 166.087 424.343 175.092Z" fill="white"/>
<path d="M425.007 165.709C425.597 164.529 424.747 160.328 424.747 160.328C424.747 160.328 443.004 157.873 449.531 160.198C453.071 161.449 449.955 167.763 449.955 167.763L425.007 165.709Z" fill="#637BB3"/>
<path opacity="0.7" d="M425.007 165.709C425.597 164.529 424.747 160.328 424.747 160.328C424.747 160.328 443.004 157.873 449.531 160.198C453.071 161.449 449.955 167.763 449.955 167.763L425.007 165.709Z" fill="black"/>
<path d="M454.133 242.692L408.331 239.281C406.835 227.749 406.31 216.111 406.762 204.49C406.951 200.313 407.281 196.465 407.682 192.949C409.806 174.55 414.291 165.203 414.291 165.203C418.701 164.388 423.167 163.918 427.65 163.799C434.172 163.905 440.681 164.389 447.146 165.25C451.833 165.85 456.474 166.764 461.037 167.988C451.773 200.655 454.971 235.67 454.133 242.692Z" fill="#637BB3"/>
<path opacity="0.7" d="M454.133 242.692L408.331 239.281C406.835 227.749 406.31 216.111 406.762 204.49C406.951 200.313 407.281 196.465 407.682 192.949C409.806 174.55 414.291 165.203 414.291 165.203C418.701 164.388 423.167 163.918 427.65 163.799C434.172 163.905 440.681 164.389 447.146 165.25C451.833 165.85 456.474 166.764 461.037 167.988C451.773 200.655 454.971 235.67 454.133 242.692Z" fill="white"/>
</svg>
