<svg width="215" height="155" viewBox="0 0 215 155" fill="none" xmlns="http://www.w3.org/2000/svg">
<path d="M138.125 120.967C138.125 120.967 174.49 120.967 177.929 120.967C197.026 120.967 212.5 106.786 212.5 89.2894C212.5 71.7928 197.026 57.6079 177.929 57.6079C177.841 57.6079 177.763 57.6199 177.675 57.6199C177.942 55.6393 178.126 53.6347 178.126 51.5899C178.126 24.6875 154.33 2.87695 124.969 2.87695C102.093 2.87695 82.6544 16.1437 75.1556 34.7148C70.4 30.3487 63.82 27.6424 56.5575 27.6424C42.0369 27.6424 30.2681 38.4274 30.2681 51.7303C30.2681 52.0711 30.3119 52.3998 30.325 52.7366C14.2906 56.798 2.5 70.2252 2.5 86.2102C2.5 105.407 19.4794 120.967 40.4313 120.967C44.0494 120.967 76.875 120.967 76.875 120.967" stroke="#F39200" stroke-width="4" stroke-miterlimit="10" stroke-linecap="round" stroke-linejoin="round"/>
<path d="M86.3024 92.6305L108.177 72.584L130.052 92.6305" stroke="#F39200" stroke-width="4" stroke-miterlimit="10" stroke-linecap="round"/>
<path d="M108.18 152.769V73.918" stroke="#F39200" stroke-width="4" stroke-miterlimit="10" stroke-linecap="round"/>
</svg>
